<?xml version="1.0" encoding="UTF-8" standalone="no"?>
<!DOCTYPE svg PUBLIC "-//W3C//DTD SVG 1.1//EN"
 "http://www.w3.org/Graphics/SVG/1.1/DTD/svg11.dtd">
<!-- Generated by graphviz version 5.0.0 (20220707.1540)
 -->
<!-- Title: StorageDiagram Pages: 1 -->
<svg width="1567pt" height="762pt"
 viewBox="0.00 0.00 1567.43 761.60" xmlns="http://www.w3.org/2000/svg" xmlns:xlink="http://www.w3.org/1999/xlink">
<g id="graph0" class="graph" transform="scale(1 1) rotate(0) translate(4 757.6)">
<title>StorageDiagram</title>
<polygon fill="white" stroke="transparent" points="-4,4 -4,-757.6 1563.43,-757.6 1563.43,4 -4,4"/>
<!-- 5 -->
<g id="node1" class="node">
<title>5</title>
<polygon fill="#f2f2f2" stroke="black" points="0,-227.5 0,-525.1 1247.79,-525.1 1247.79,-227.5 0,-227.5"/>
<text text-anchor="middle" x="623.9" y="-508.5" font-family="Courier New" font-size="14.00">LiquidityManager &lt;&lt;Contract&gt;&gt;</text>
<polyline fill="none" stroke="black" points="0,-500.3 1247.79,-500.3 "/>
<text text-anchor="middle" x="37.4" y="-483.7" font-family="Courier New" font-size="14.00">slot</text>
<polyline fill="none" stroke="black" points="0,-475.5 74.81,-475.5 "/>
<text text-anchor="middle" x="37.4" y="-458.9" font-family="Courier New" font-size="14.00">0</text>
<polyline fill="none" stroke="black" points="0,-450.7 74.81,-450.7 "/>
<text text-anchor="middle" x="37.4" y="-434.1" font-family="Courier New" font-size="14.00">1&#45;50</text>
<polyline fill="none" stroke="black" points="0,-425.9 74.81,-425.9 "/>
<text text-anchor="middle" x="37.4" y="-409.3" font-family="Courier New" font-size="14.00">51</text>
<polyline fill="none" stroke="black" points="0,-401.1 74.81,-401.1 "/>
<text text-anchor="middle" x="37.4" y="-384.5" font-family="Courier New" font-size="14.00">52&#45;100</text>
<polyline fill="none" stroke="black" points="0,-376.3 74.81,-376.3 "/>
<text text-anchor="middle" x="37.4" y="-359.7" font-family="Courier New" font-size="14.00">101&#45;150</text>
<polyline fill="none" stroke="black" points="0,-351.5 74.81,-351.5 "/>
<text text-anchor="middle" x="37.4" y="-334.9" font-family="Courier New" font-size="14.00">151&#45;200</text>
<polyline fill="none" stroke="black" points="0,-326.7 74.81,-326.7 "/>
<text text-anchor="middle" x="37.4" y="-310.1" font-family="Courier New" font-size="14.00">201</text>
<polyline fill="none" stroke="black" points="0,-301.9 74.81,-301.9 "/>
<text text-anchor="middle" x="37.4" y="-285.3" font-family="Courier New" font-size="14.00">202</text>
<polyline fill="none" stroke="black" points="0,-277.1 74.81,-277.1 "/>
<text text-anchor="middle" x="37.4" y="-260.5" font-family="Courier New" font-size="14.00">203</text>
<polyline fill="none" stroke="black" points="0,-252.3 74.81,-252.3 "/>
<text text-anchor="middle" x="37.4" y="-235.7" font-family="Courier New" font-size="14.00">204</text>
<polyline fill="none" stroke="black" points="74.81,-227.5 74.81,-500.3 "/>
<text text-anchor="middle" x="661.3" y="-483.7" font-family="Courier New" font-size="14.00">type: &lt;inherited contract&gt;.variable (bytes)</text>
<polyline fill="none" stroke="black" points="74.81,-475.5 1247.79,-475.5 "/>
<text text-anchor="middle" x="211.02" y="-458.9" font-family="Courier New" font-size="14.00">unallocated (30)</text>
<polyline fill="none" stroke="black" points="347.23,-450.7 347.23,-475.5 "/>
<text text-anchor="middle" x="572.16" y="-458.9" font-family="Courier New" font-size="14.00">bool: Initializable._initializing (1)</text>
<polyline fill="none" stroke="black" points="797.08,-450.7 797.08,-475.5 "/>
<text text-anchor="middle" x="1022.01" y="-458.9" font-family="Courier New" font-size="14.00">uint8: Initializable._initialized (1)</text>
<polyline fill="none" stroke="black" points="74.81,-450.7 1247.79,-450.7 "/>
<text text-anchor="middle" x="661.14" y="-434.1" font-family="Courier New" font-size="14.00">uint256[50]: ContextUpgradeable.__gap (1600)</text>
<polyline fill="none" stroke="black" points="74.81,-425.9 1247.79,-425.9 "/>
<text text-anchor="middle" x="319.52" y="-409.3" font-family="Courier New" font-size="14.00">unallocated (12)</text>
<polyline fill="none" stroke="black" points="564.23,-401.1 564.23,-425.9 "/>
<text text-anchor="middle" x="905.56" y="-409.3" font-family="Courier New" font-size="14.00">address: OwnableUpgradeable._owner (20)</text>
<polyline fill="none" stroke="black" points="74.81,-401.1 1247.79,-401.1 "/>
<text text-anchor="middle" x="661.14" y="-384.5" font-family="Courier New" font-size="14.00">uint256[49]: OwnableUpgradeable.__gap (1568)</text>
<polyline fill="none" stroke="black" points="74.81,-376.3 1247.79,-376.3 "/>
<text text-anchor="middle" x="661.04" y="-359.7" font-family="Courier New" font-size="14.00">uint256[50]: ERC1967UpgradeUpgradeable.__gap (1600)</text>
<polyline fill="none" stroke="black" points="74.81,-351.5 1247.79,-351.5 "/>
<text text-anchor="middle" x="661.04" y="-334.9" font-family="Courier New" font-size="14.00">uint256[50]: UUPSUpgradeable.__gap (1600)</text>
<polyline fill="none" stroke="black" points="74.81,-326.7 1247.79,-326.7 "/>
<text text-anchor="middle" x="330.02" y="-310.1" font-family="Courier New" font-size="14.00">unallocated (12)</text>
<polyline fill="none" stroke="black" points="585.23,-301.9 585.23,-326.7 "/>
<text text-anchor="middle" x="916.05" y="-310.1" font-family="Courier New" font-size="14.00">address: UseTreasury.treasury (20)</text>
<polyline fill="none" stroke="black" points="74.81,-301.9 1247.79,-301.9 "/>
<text text-anchor="middle" x="145.82" y="-285.3" font-family="Courier New" font-size="14.00">unallocated (4)</text>
<polyline fill="none" stroke="black" points="216.83,-277.1 216.83,-301.9 "/>
<text text-anchor="middle" x="380.26" y="-285.3" font-family="Courier New" font-size="14.00">uint32: UseFee.nonSubscriberFeeBP (4)</text>
<polyline fill="none" stroke="black" points="543.68,-277.1 543.68,-301.9 "/>
<text text-anchor="middle" x="669.3" y="-285.3" font-family="Courier New" font-size="14.00">uint32: UseFee.baseFeeBP (4)</text>
<polyline fill="none" stroke="black" points="794.92,-277.1 794.92,-301.9 "/>
<text text-anchor="middle" x="1021.35" y="-285.3" font-family="Courier New" font-size="14.00">SubscriptionManager: UseFee.subscriptionManager (20)</text>
<polyline fill="none" stroke="black" points="74.81,-277.1 1247.79,-277.1 "/>
<text text-anchor="middle" x="298.52" y="-260.5" font-family="Courier New" font-size="14.00">unallocated (12)</text>
<polyline fill="none" stroke="black" points="522.23,-252.3 522.23,-277.1 "/>
<text text-anchor="middle" x="884.56" y="-260.5" font-family="Courier New" font-size="14.00">address: OnlyStrategyManager.strategyManager (20)</text>
<polyline fill="none" stroke="black" points="74.81,-252.3 1247.79,-252.3 "/>
<text text-anchor="middle" x="351.02" y="-235.7" font-family="Courier New" font-size="14.00">unallocated (12)</text>
<polyline fill="none" stroke="black" points="627.23,-227.5 627.23,-252.3 "/>
<text text-anchor="middle" x="937.05" y="-235.7" font-family="Courier New" font-size="14.00">address: zapManager (20)</text>
</g>
<!-- 1 -->
<g id="node2" class="node">
<title>1</title>
<polygon fill="#f2f2f2" stroke="black" points="1295.99,-579.5 1295.99,-753.1 1547.23,-753.1 1547.23,-579.5 1295.99,-579.5"/>
<text text-anchor="middle" x="1421.61" y="-736.5" font-family="Courier New" font-size="14.00">uint256[50]: __gap &lt;&lt;Array&gt;&gt;</text>
<polyline fill="none" stroke="black" points="1295.99,-728.3 1547.23,-728.3 "/>
<text text-anchor="middle" x="1320.79" y="-711.7" font-family="Courier New" font-size="14.00">slot</text>
<polyline fill="none" stroke="black" points="1295.99,-703.5 1345.6,-703.5 "/>
<text text-anchor="middle" x="1320.79" y="-686.9" font-family="Courier New" font-size="14.00">1</text>
<polyline fill="none" stroke="black" points="1295.99,-678.7 1345.6,-678.7 "/>
<text text-anchor="middle" x="1320.79" y="-662.1" font-family="Courier New" font-size="14.00">2</text>
<polyline fill="none" stroke="black" points="1295.99,-653.9 1345.6,-653.9 "/>
<text text-anchor="middle" x="1320.79" y="-637.3" font-family="Courier New" font-size="14.00">3&#45;48</text>
<polyline fill="none" stroke="black" points="1295.99,-629.1 1345.6,-629.1 "/>
<text text-anchor="middle" x="1320.79" y="-612.5" font-family="Courier New" font-size="14.00">49</text>
<polyline fill="none" stroke="black" points="1295.99,-604.3 1345.6,-604.3 "/>
<text text-anchor="middle" x="1320.79" y="-587.7" font-family="Courier New" font-size="14.00">50</text>
<polyline fill="none" stroke="black" points="1345.6,-579.5 1345.6,-728.3 "/>
<text text-anchor="middle" x="1446.01" y="-711.7" font-family="Courier New" font-size="14.00">type: variable (bytes)</text>
<polyline fill="none" stroke="black" points="1345.6,-703.5 1546.43,-703.5 "/>
<text text-anchor="middle" x="1446" y="-686.9" font-family="Courier New" font-size="14.00">uint256 (32)</text>
<polyline fill="none" stroke="black" points="1345.6,-678.7 1546.43,-678.7 "/>
<text text-anchor="middle" x="1446" y="-662.1" font-family="Courier New" font-size="14.00">uint256 (32)</text>
<polyline fill="none" stroke="black" points="1345.6,-653.9 1546.43,-653.9 "/>
<text text-anchor="middle" x="1445.8" y="-637.3" font-family="Courier New" font-size="14.00">&#45;&#45;&#45;&#45; (1472)</text>
<polyline fill="none" stroke="black" points="1345.6,-629.1 1546.43,-629.1 "/>
<text text-anchor="middle" x="1446" y="-612.5" font-family="Courier New" font-size="14.00">uint256 (32)</text>
<polyline fill="none" stroke="black" points="1345.6,-604.3 1546.43,-604.3 "/>
<text text-anchor="middle" x="1446" y="-587.7" font-family="Courier New" font-size="14.00">uint256 (32)</text>
</g>
<!-- 5&#45;&gt;1 -->
<g id="edge1" class="edge">
<title>5:8&#45;&gt;1</title>
<path fill="none" stroke="black" d="M1247.79,-438.3C1308.17,-438.3 1249.14,-519.85 1283.79,-569.3 1285.51,-571.76 1287.32,-574.18 1289.2,-576.55"/>
<polygon fill="black" stroke="black" points="1286.75,-579.08 1295.86,-584.48 1292.1,-574.57 1286.75,-579.08"/>
</g>
<!-- 2 -->
<g id="node3" class="node">
<title>2</title>
<polygon fill="#f2f2f2" stroke="black" points="1292.19,-386.5 1292.19,-560.1 1551.03,-560.1 1551.03,-386.5 1292.19,-386.5"/>
<text text-anchor="middle" x="1421.61" y="-543.5" font-family="Courier New" font-size="14.00">uint256[49]: __gap &lt;&lt;Array&gt;&gt;</text>
<polyline fill="none" stroke="black" points="1292.19,-535.3 1551.03,-535.3 "/>
<text text-anchor="middle" x="1321.19" y="-518.7" font-family="Courier New" font-size="14.00">slot</text>
<polyline fill="none" stroke="black" points="1292.19,-510.5 1350.2,-510.5 "/>
<text text-anchor="middle" x="1321.19" y="-493.9" font-family="Courier New" font-size="14.00">52</text>
<polyline fill="none" stroke="black" points="1292.19,-485.7 1350.2,-485.7 "/>
<text text-anchor="middle" x="1321.19" y="-469.1" font-family="Courier New" font-size="14.00">53</text>
<polyline fill="none" stroke="black" points="1292.19,-460.9 1350.2,-460.9 "/>
<text text-anchor="middle" x="1321.19" y="-444.3" font-family="Courier New" font-size="14.00">54&#45;98</text>
<polyline fill="none" stroke="black" points="1292.19,-436.1 1350.2,-436.1 "/>
<text text-anchor="middle" x="1321.19" y="-419.5" font-family="Courier New" font-size="14.00">99</text>
<polyline fill="none" stroke="black" points="1292.19,-411.3 1350.2,-411.3 "/>
<text text-anchor="middle" x="1321.19" y="-394.7" font-family="Courier New" font-size="14.00">100</text>
<polyline fill="none" stroke="black" points="1350.2,-386.5 1350.2,-535.3 "/>
<text text-anchor="middle" x="1450.61" y="-518.7" font-family="Courier New" font-size="14.00">type: variable (bytes)</text>
<polyline fill="none" stroke="black" points="1350.2,-510.5 1551.03,-510.5 "/>
<text text-anchor="middle" x="1450.61" y="-493.9" font-family="Courier New" font-size="14.00">uint256 (32)</text>
<polyline fill="none" stroke="black" points="1350.2,-485.7 1551.03,-485.7 "/>
<text text-anchor="middle" x="1450.61" y="-469.1" font-family="Courier New" font-size="14.00">uint256 (32)</text>
<polyline fill="none" stroke="black" points="1350.2,-460.9 1551.03,-460.9 "/>
<text text-anchor="middle" x="1450.41" y="-444.3" font-family="Courier New" font-size="14.00">&#45;&#45;&#45;&#45; (1440)</text>
<polyline fill="none" stroke="black" points="1350.2,-436.1 1551.03,-436.1 "/>
<text text-anchor="middle" x="1450.61" y="-419.5" font-family="Courier New" font-size="14.00">uint256 (32)</text>
<polyline fill="none" stroke="black" points="1350.2,-411.3 1551.03,-411.3 "/>
<text text-anchor="middle" x="1450.61" y="-394.7" font-family="Courier New" font-size="14.00">uint256 (32)</text>
</g>
<!-- 5&#45;&gt;2 -->
<g id="edge2" class="edge">
<title>5:15&#45;&gt;2</title>
<path fill="none" stroke="black" d="M1247.79,-388.3C1259.3,-388.3 1270.84,-389.84 1282.19,-392.5"/>
<polygon fill="black" stroke="black" points="1281.55,-395.95 1292.11,-395.11 1283.33,-389.18 1281.55,-395.95"/>
</g>
<!-- 3 -->
<g id="node4" class="node">
<title>3</title>
<polygon fill="#f2f2f2" stroke="black" points="1283.79,-193.5 1283.79,-367.1 1559.43,-367.1 1559.43,-193.5 1283.79,-193.5"/>
<text text-anchor="middle" x="1421.61" y="-350.5" font-family="Courier New" font-size="14.00">uint256[50]: __gap &lt;&lt;Array&gt;&gt;</text>
<polyline fill="none" stroke="black" points="1283.79,-342.3 1559.43,-342.3 "/>
<text text-anchor="middle" x="1321.19" y="-325.7" font-family="Courier New" font-size="14.00">slot</text>
<polyline fill="none" stroke="black" points="1283.79,-317.5 1358.6,-317.5 "/>
<text text-anchor="middle" x="1321.19" y="-300.9" font-family="Courier New" font-size="14.00">101</text>
<polyline fill="none" stroke="black" points="1283.79,-292.7 1358.6,-292.7 "/>
<text text-anchor="middle" x="1321.19" y="-276.1" font-family="Courier New" font-size="14.00">102</text>
<polyline fill="none" stroke="black" points="1283.79,-267.9 1358.6,-267.9 "/>
<text text-anchor="middle" x="1321.19" y="-251.3" font-family="Courier New" font-size="14.00">103&#45;148</text>
<polyline fill="none" stroke="black" points="1283.79,-243.1 1358.6,-243.1 "/>
<text text-anchor="middle" x="1321.19" y="-226.5" font-family="Courier New" font-size="14.00">149</text>
<polyline fill="none" stroke="black" points="1283.79,-218.3 1358.6,-218.3 "/>
<text text-anchor="middle" x="1321.19" y="-201.7" font-family="Courier New" font-size="14.00">150</text>
<polyline fill="none" stroke="black" points="1358.6,-193.5 1358.6,-342.3 "/>
<text text-anchor="middle" x="1459.01" y="-325.7" font-family="Courier New" font-size="14.00">type: variable (bytes)</text>
<polyline fill="none" stroke="black" points="1358.6,-317.5 1559.43,-317.5 "/>
<text text-anchor="middle" x="1459.01" y="-300.9" font-family="Courier New" font-size="14.00">uint256 (32)</text>
<polyline fill="none" stroke="black" points="1358.6,-292.7 1559.43,-292.7 "/>
<text text-anchor="middle" x="1459.01" y="-276.1" font-family="Courier New" font-size="14.00">uint256 (32)</text>
<polyline fill="none" stroke="black" points="1358.6,-267.9 1559.43,-267.9 "/>
<text text-anchor="middle" x="1458.81" y="-251.3" font-family="Courier New" font-size="14.00">&#45;&#45;&#45;&#45; (1472)</text>
<polyline fill="none" stroke="black" points="1358.6,-243.1 1559.43,-243.1 "/>
<text text-anchor="middle" x="1459.01" y="-226.5" font-family="Courier New" font-size="14.00">uint256 (32)</text>
<polyline fill="none" stroke="black" points="1358.6,-218.3 1559.43,-218.3 "/>
<text text-anchor="middle" x="1459.01" y="-201.7" font-family="Courier New" font-size="14.00">uint256 (32)</text>
</g>
<!-- 5&#45;&gt;3 -->
<g id="edge3" class="edge">
<title>5:21&#45;&gt;3</title>
<path fill="none" stroke="black" d="M1247.79,-364.3C1256.42,-364.3 1265.07,-363.44 1273.66,-361.9"/>
<polygon fill="black" stroke="black" points="1274.63,-365.27 1283.69,-359.78 1273.18,-358.42 1274.63,-365.27"/>
</g>
<!-- 4 -->
<g id="node5" class="node">
<title>4</title>
<polygon fill="#f2f2f2" stroke="black" points="1283.79,-0.5 1283.79,-174.1 1559.43,-174.1 1559.43,-0.5 1283.79,-0.5"/>
<text text-anchor="middle" x="1421.61" y="-157.5" font-family="Courier New" font-size="14.00">uint256[50]: __gap &lt;&lt;Array&gt;&gt;</text>
<polyline fill="none" stroke="black" points="1283.79,-149.3 1559.43,-149.3 "/>
<text text-anchor="middle" x="1321.19" y="-132.7" font-family="Courier New" font-size="14.00">slot</text>
<polyline fill="none" stroke="black" points="1283.79,-124.5 1358.6,-124.5 "/>
<text text-anchor="middle" x="1321.19" y="-107.9" font-family="Courier New" font-size="14.00">151</text>
<polyline fill="none" stroke="black" points="1283.79,-99.7 1358.6,-99.7 "/>
<text text-anchor="middle" x="1321.19" y="-83.1" font-family="Courier New" font-size="14.00">152</text>
<polyline fill="none" stroke="black" points="1283.79,-74.9 1358.6,-74.9 "/>
<text text-anchor="middle" x="1321.19" y="-58.3" font-family="Courier New" font-size="14.00">153&#45;198</text>
<polyline fill="none" stroke="black" points="1283.79,-50.1 1358.6,-50.1 "/>
<text text-anchor="middle" x="1321.19" y="-33.5" font-family="Courier New" font-size="14.00">199</text>
<polyline fill="none" stroke="black" points="1283.79,-25.3 1358.6,-25.3 "/>
<text text-anchor="middle" x="1321.19" y="-8.7" font-family="Courier New" font-size="14.00">200</text>
<polyline fill="none" stroke="black" points="1358.6,-0.5 1358.6,-149.3 "/>
<text text-anchor="middle" x="1459.01" y="-132.7" font-family="Courier New" font-size="14.00">type: variable (bytes)</text>
<polyline fill="none" stroke="black" points="1358.6,-124.5 1559.43,-124.5 "/>
<text text-anchor="middle" x="1459.01" y="-107.9" font-family="Courier New" font-size="14.00">uint256 (32)</text>
<polyline fill="none" stroke="black" points="1358.6,-99.7 1559.43,-99.7 "/>
<text text-anchor="middle" x="1459.01" y="-83.1" font-family="Courier New" font-size="14.00">uint256 (32)</text>
<polyline fill="none" stroke="black" points="1358.6,-74.9 1559.43,-74.9 "/>
<text text-anchor="middle" x="1458.81" y="-58.3" font-family="Courier New" font-size="14.00">&#45;&#45;&#45;&#45; (1472)</text>
<polyline fill="none" stroke="black" points="1358.6,-50.1 1559.43,-50.1 "/>
<text text-anchor="middle" x="1459.01" y="-33.5" font-family="Courier New" font-size="14.00">uint256 (32)</text>
<polyline fill="none" stroke="black" points="1358.6,-25.3 1559.43,-25.3 "/>
<text text-anchor="middle" x="1459.01" y="-8.7" font-family="Courier New" font-size="14.00">uint256 (32)</text>
</g>
<!-- 5&#45;&gt;4 -->
<g id="edge4" class="edge">
<title>5:27&#45;&gt;4</title>
<path fill="none" stroke="black" d="M1247.79,-339.3C1318.51,-339.3 1244.38,-243.02 1283.79,-184.3 1284.22,-183.67 1284.65,-183.03 1285.08,-182.4"/>
<polygon fill="black" stroke="black" points="1287.89,-184.5 1291.06,-174.39 1282.28,-180.31 1287.89,-184.5"/>
</g>
</g>
</svg>
