<?xml version="1.0" encoding="UTF-8" standalone="no"?>
<!DOCTYPE svg PUBLIC "-//W3C//DTD SVG 1.1//EN"
 "http://www.w3.org/Graphics/SVG/1.1/DTD/svg11.dtd">
<!-- Generated by graphviz version 5.0.0 (20220707.1540)
 -->
<!-- Title: StorageDiagram Pages: 1 -->
<svg width="3329pt" height="1516pt"
 viewBox="0.00 0.00 3329.29 1516.40" xmlns="http://www.w3.org/2000/svg" xmlns:xlink="http://www.w3.org/1999/xlink">
<g id="graph0" class="graph" transform="scale(1 1) rotate(0) translate(4 1512.4)">
<title>StorageDiagram</title>
<polygon fill="white" stroke="transparent" points="-4,4 -4,-1512.4 3325.29,-1512.4 3325.29,4 -4,4"/>
<!-- 14 -->
<g id="node1" class="node">
<title>14</title>
<polygon fill="#f2f2f2" stroke="black" points="0,-499.9 0,-1194.3 1415.82,-1194.3 1415.82,-499.9 0,-499.9"/>
<text text-anchor="middle" x="707.91" y="-1177.7" font-family="Courier New" font-size="14.00">StrategyInvestor &lt;&lt;Contract&gt;&gt;</text>
<polyline fill="none" stroke="black" points="0,-1169.5 1415.82,-1169.5 "/>
<text text-anchor="middle" x="33.2" y="-1152.9" font-family="Courier New" font-size="14.00">slot</text>
<polyline fill="none" stroke="black" points="0,-1144.7 66.41,-1144.7 "/>
<text text-anchor="middle" x="33.2" y="-1128.1" font-family="Courier New" font-size="14.00">0</text>
<polyline fill="none" stroke="black" points="0,-1119.9 66.41,-1119.9 "/>
<text text-anchor="middle" x="33.2" y="-1103.3" font-family="Courier New" font-size="14.00">1&#45;50</text>
<polyline fill="none" stroke="black" points="0,-1095.1 66.41,-1095.1 "/>
<text text-anchor="middle" x="33.2" y="-1078.5" font-family="Courier New" font-size="14.00">51</text>
<polyline fill="none" stroke="black" points="0,-1070.3 66.41,-1070.3 "/>
<text text-anchor="middle" x="33.2" y="-1053.7" font-family="Courier New" font-size="14.00">52&#45;100</text>
<polyline fill="none" stroke="black" points="0,-1045.5 66.41,-1045.5 "/>
<text text-anchor="middle" x="33.2" y="-1028.9" font-family="Courier New" font-size="14.00">101</text>
<polyline fill="none" stroke="black" points="0,-1020.7 66.41,-1020.7 "/>
<text text-anchor="middle" x="33.2" y="-1004.1" font-family="Courier New" font-size="14.00">102</text>
<polyline fill="none" stroke="black" points="0,-995.9 66.41,-995.9 "/>
<text text-anchor="middle" x="33.2" y="-979.3" font-family="Courier New" font-size="14.00">103</text>
<polyline fill="none" stroke="black" points="0,-971.1 66.41,-971.1 "/>
<text text-anchor="middle" x="33.2" y="-954.5" font-family="Courier New" font-size="14.00">104</text>
<polyline fill="none" stroke="black" points="0,-946.3 66.41,-946.3 "/>
<text text-anchor="middle" x="33.2" y="-929.7" font-family="Courier New" font-size="14.00">105</text>
<polyline fill="none" stroke="black" points="0,-921.5 66.41,-921.5 "/>
<text text-anchor="middle" x="33.2" y="-904.9" font-family="Courier New" font-size="14.00">106</text>
<polyline fill="none" stroke="black" points="0,-896.7 66.41,-896.7 "/>
<text text-anchor="middle" x="33.2" y="-880.1" font-family="Courier New" font-size="14.00">107</text>
<polyline fill="none" stroke="black" points="0,-871.9 66.41,-871.9 "/>
<text text-anchor="middle" x="33.2" y="-855.3" font-family="Courier New" font-size="14.00">108</text>
<polyline fill="none" stroke="black" points="0,-847.1 66.41,-847.1 "/>
<text text-anchor="middle" x="33.2" y="-830.5" font-family="Courier New" font-size="14.00">109</text>
<polyline fill="none" stroke="black" points="0,-822.3 66.41,-822.3 "/>
<text text-anchor="middle" x="33.2" y="-805.7" font-family="Courier New" font-size="14.00">110</text>
<polyline fill="none" stroke="black" points="0,-797.5 66.41,-797.5 "/>
<text text-anchor="middle" x="33.2" y="-780.9" font-family="Courier New" font-size="14.00">111</text>
<polyline fill="none" stroke="black" points="0,-772.7 66.41,-772.7 "/>
<text text-anchor="middle" x="33.2" y="-756.1" font-family="Courier New" font-size="14.00">112</text>
<polyline fill="none" stroke="black" points="0,-747.9 66.41,-747.9 "/>
<text text-anchor="middle" x="33.2" y="-731.3" font-family="Courier New" font-size="14.00">113</text>
<polyline fill="none" stroke="black" points="0,-723.1 66.41,-723.1 "/>
<text text-anchor="middle" x="33.2" y="-706.5" font-family="Courier New" font-size="14.00">114</text>
<polyline fill="none" stroke="black" points="0,-698.3 66.41,-698.3 "/>
<text text-anchor="middle" x="33.2" y="-681.7" font-family="Courier New" font-size="14.00">115</text>
<polyline fill="none" stroke="black" points="0,-673.5 66.41,-673.5 "/>
<text text-anchor="middle" x="33.2" y="-656.9" font-family="Courier New" font-size="14.00">116</text>
<polyline fill="none" stroke="black" points="0,-648.7 66.41,-648.7 "/>
<text text-anchor="middle" x="33.2" y="-632.1" font-family="Courier New" font-size="14.00">117</text>
<polyline fill="none" stroke="black" points="0,-623.9 66.41,-623.9 "/>
<text text-anchor="middle" x="33.2" y="-607.3" font-family="Courier New" font-size="14.00">118</text>
<polyline fill="none" stroke="black" points="0,-599.1 66.41,-599.1 "/>
<text text-anchor="middle" x="33.2" y="-582.5" font-family="Courier New" font-size="14.00">119</text>
<polyline fill="none" stroke="black" points="0,-574.3 66.41,-574.3 "/>
<text text-anchor="middle" x="33.2" y="-557.7" font-family="Courier New" font-size="14.00">120</text>
<polyline fill="none" stroke="black" points="0,-549.5 66.41,-549.5 "/>
<text text-anchor="middle" x="33.2" y="-532.9" font-family="Courier New" font-size="14.00">121</text>
<polyline fill="none" stroke="black" points="0,-524.7 66.41,-524.7 "/>
<text text-anchor="middle" x="33.2" y="-508.1" font-family="Courier New" font-size="14.00">122</text>
<polyline fill="none" stroke="black" points="66.41,-499.9 66.41,-1169.5 "/>
<text text-anchor="middle" x="741.11" y="-1152.9" font-family="Courier New" font-size="14.00">type: &lt;inherited contract&gt;.variable (bytes)</text>
<polyline fill="none" stroke="black" points="66.41,-1144.7 1415.82,-1144.7 "/>
<text text-anchor="middle" x="232.12" y="-1128.1" font-family="Courier New" font-size="14.00">unallocated (30)</text>
<polyline fill="none" stroke="black" points="397.83,-1119.9 397.83,-1144.7 "/>
<text text-anchor="middle" x="652.26" y="-1128.1" font-family="Courier New" font-size="14.00">bool: Initializable._initializing (1)</text>
<polyline fill="none" stroke="black" points="906.68,-1119.9 906.68,-1144.7 "/>
<text text-anchor="middle" x="1161.11" y="-1128.1" font-family="Courier New" font-size="14.00">uint8: Initializable._initialized (1)</text>
<polyline fill="none" stroke="black" points="66.41,-1119.9 1415.82,-1119.9 "/>
<text text-anchor="middle" x="740.74" y="-1103.3" font-family="Courier New" font-size="14.00">uint256[50]: ContextUpgradeable.__gap (1600)</text>
<polyline fill="none" stroke="black" points="66.41,-1095.1 1415.82,-1095.1 "/>
<text text-anchor="middle" x="355.12" y="-1078.5" font-family="Courier New" font-size="14.00">unallocated (12)</text>
<polyline fill="none" stroke="black" points="643.83,-1070.3 643.83,-1095.1 "/>
<text text-anchor="middle" x="1029.66" y="-1078.5" font-family="Courier New" font-size="14.00">address: OwnableUpgradeable._owner (20)</text>
<polyline fill="none" stroke="black" points="66.41,-1070.3 1415.82,-1070.3 "/>
<text text-anchor="middle" x="740.74" y="-1053.7" font-family="Courier New" font-size="14.00">uint256[49]: OwnableUpgradeable.__gap (1568)</text>
<polyline fill="none" stroke="black" points="66.41,-1045.5 1415.82,-1045.5 "/>
<text text-anchor="middle" x="365.62" y="-1028.9" font-family="Courier New" font-size="14.00">unallocated (12)</text>
<polyline fill="none" stroke="black" points="664.83,-1020.7 664.83,-1045.5 "/>
<text text-anchor="middle" x="1040.15" y="-1028.9" font-family="Courier New" font-size="14.00">address: UseTreasury.treasury (20)</text>
<polyline fill="none" stroke="black" points="66.41,-1020.7 1415.82,-1020.7 "/>
<text text-anchor="middle" x="740.74" y="-1004.1" font-family="Courier New" font-size="14.00">Strategy[]: StrategyStorage._strategies (32)</text>
<polyline fill="none" stroke="black" points="66.41,-995.9 1415.82,-995.9 "/>
<text text-anchor="middle" x="740.85" y="-979.3" font-family="Courier New" font-size="14.00">mapping(uint=&gt;bool): StrategyStorage._hottestStrategiesMapping (32)</text>
<polyline fill="none" stroke="black" points="66.41,-971.1 1415.82,-971.1 "/>
<text text-anchor="middle" x="740.84" y="-954.5" font-family="Courier New" font-size="14.00">uint[]: StrategyStorage._hottestStrategiesArray (32)</text>
<polyline fill="none" stroke="black" points="66.41,-946.3 1415.82,-946.3 "/>
<text text-anchor="middle" x="338.62" y="-929.7" font-family="Courier New" font-size="14.00">unallocated (31)</text>
<polyline fill="none" stroke="black" points="610.83,-921.5 610.83,-946.3 "/>
<text text-anchor="middle" x="1013.26" y="-929.7" font-family="Courier New" font-size="14.00">uint8: StrategyStorage.maxHottestStrategies (1)</text>
<polyline fill="none" stroke="black" points="66.41,-921.5 1415.82,-921.5 "/>
<text text-anchor="middle" x="741.05" y="-904.9" font-family="Courier New" font-size="14.00">mapping(address=&gt;uint): StrategyStorage._strategistRewards (32)</text>
<polyline fill="none" stroke="black" points="66.41,-896.7 1415.82,-896.7 "/>
<text text-anchor="middle" x="340.62" y="-880.1" font-family="Courier New" font-size="14.00">unallocated (12)</text>
<polyline fill="none" stroke="black" points="614.83,-871.9 614.83,-896.7 "/>
<text text-anchor="middle" x="1015.06" y="-880.1" font-family="Courier New" font-size="14.00">IERC20Upgradeable: StrategyStorage.stable (20)</text>
<polyline fill="none" stroke="black" points="66.41,-871.9 1415.82,-871.9 "/>
<text text-anchor="middle" x="353.12" y="-855.3" font-family="Courier New" font-size="14.00">unallocated (12)</text>
<polyline fill="none" stroke="black" points="639.83,-847.1 639.83,-871.9 "/>
<text text-anchor="middle" x="1027.36" y="-855.3" font-family="Courier New" font-size="14.00">address: StrategyStorage.zapManager (20)</text>
<polyline fill="none" stroke="black" points="66.41,-847.1 1415.82,-847.1 "/>
<text text-anchor="middle" x="309.12" y="-830.5" font-family="Courier New" font-size="14.00">unallocated (12)</text>
<polyline fill="none" stroke="black" points="551.83,-822.3 551.83,-847.1 "/>
<text text-anchor="middle" x="983.57" y="-830.5" font-family="Courier New" font-size="14.00">SubscriptionManager: StrategyStorage.subscriptionManager (20)</text>
<polyline fill="none" stroke="black" points="66.41,-822.3 1415.82,-822.3 "/>
<text text-anchor="middle" x="346.62" y="-805.7" font-family="Courier New" font-size="14.00">unallocated (12)</text>
<polyline fill="none" stroke="black" points="626.83,-797.5 626.83,-822.3 "/>
<text text-anchor="middle" x="1020.96" y="-805.7" font-family="Courier New" font-size="14.00">DollarCostAverage: StrategyStorage.dca (20)</text>
<polyline fill="none" stroke="black" points="66.41,-797.5 1415.82,-797.5 "/>
<text text-anchor="middle" x="338.62" y="-780.9" font-family="Courier New" font-size="14.00">unallocated (12)</text>
<polyline fill="none" stroke="black" points="610.83,-772.7 610.83,-797.5 "/>
<text text-anchor="middle" x="1013.26" y="-780.9" font-family="Courier New" font-size="14.00">VaultManager: StrategyStorage.vaultManager (20)</text>
<polyline fill="none" stroke="black" points="66.41,-772.7 1415.82,-772.7 "/>
<text text-anchor="middle" x="321.62" y="-756.1" font-family="Courier New" font-size="14.00">unallocated (12)</text>
<polyline fill="none" stroke="black" points="576.83,-747.9 576.83,-772.7 "/>
<text text-anchor="middle" x="995.87" y="-756.1" font-family="Courier New" font-size="14.00">LiquidityManager: StrategyStorage.liquidityManager (20)</text>
<polyline fill="none" stroke="black" points="66.41,-747.9 1415.82,-747.9 "/>
<text text-anchor="middle" x="137.42" y="-731.3" font-family="Courier New" font-size="14.00">unallocated (4)</text>
<polyline fill="none" stroke="black" points="208.43,-723.1 208.43,-747.9 "/>
<text text-anchor="middle" x="430.66" y="-731.3" font-family="Courier New" font-size="14.00">uint32: StrategyStorage.hotStrategistPercentage (4)</text>
<polyline fill="none" stroke="black" points="652.9,-723.1 652.9,-747.9 "/>
<text text-anchor="middle" x="862.53" y="-731.3" font-family="Courier New" font-size="14.00">uint32: StrategyStorage.strategistPercentage (4)</text>
<polyline fill="none" stroke="black" points="1072.16,-723.1 1072.16,-747.9 "/>
<text text-anchor="middle" x="1243.99" y="-731.3" font-family="Courier New" font-size="14.00">UseFee: StrategyStorage.buyProduct (20)</text>
<polyline fill="none" stroke="black" points="66.41,-723.1 1415.82,-723.1 "/>
<text text-anchor="middle" x="740.76" y="-706.5" font-family="Courier New" font-size="14.00">mapping(uint=&gt;DcaInvestment[]): StrategyStorage._dcaInvestmentsPerStrategy (32)</text>
<polyline fill="none" stroke="black" points="66.41,-698.3 1415.82,-698.3 "/>
<text text-anchor="middle" x="741.06" y="-681.7" font-family="Courier New" font-size="14.00">mapping(uint=&gt;VaultInvestment[]): StrategyStorage._vaultInvestmentsPerStrategy (32)</text>
<polyline fill="none" stroke="black" points="66.41,-673.5 1415.82,-673.5 "/>
<text text-anchor="middle" x="740.67" y="-656.9" font-family="Courier New" font-size="14.00">mapping(uint=&gt;LiquidityInvestment[]): StrategyStorage._liquidityInvestmentsPerStrategy (32)</text>
<polyline fill="none" stroke="black" points="66.41,-648.7 1415.82,-648.7 "/>
<text text-anchor="middle" x="740.76" y="-632.1" font-family="Courier New" font-size="14.00">mapping(uint=&gt;BuyInvestment[]): StrategyStorage._buyInvestmentsPerStrategy (32)</text>
<polyline fill="none" stroke="black" points="66.41,-623.9 1415.82,-623.9 "/>
<text text-anchor="middle" x="740.65" y="-607.3" font-family="Courier New" font-size="14.00">mapping(address=&gt;Position[]): StrategyStorage._positions (32)</text>
<polyline fill="none" stroke="black" points="66.41,-599.1 1415.82,-599.1 "/>
<text text-anchor="middle" x="740.67" y="-582.5" font-family="Courier New" font-size="14.00">mapping(address=&gt;mapping(uint=&gt;uint[])): StrategyStorage._dcaPositionsPerPosition (32)</text>
<polyline fill="none" stroke="black" points="66.41,-574.3 1415.82,-574.3 "/>
<text text-anchor="middle" x="740.87" y="-557.7" font-family="Courier New" font-size="14.00">mapping(address=&gt;mapping(uint=&gt;VaultPosition[])): StrategyStorage._vaultPositionsPerPosition (32)</text>
<polyline fill="none" stroke="black" points="66.41,-549.5 1415.82,-549.5 "/>
<text text-anchor="middle" x="740.98" y="-532.9" font-family="Courier New" font-size="14.00">mapping(address=&gt;mapping(uint=&gt;LiquidityPosition[])): StrategyStorage._liquidityPositionsPerPosition (32)</text>
<polyline fill="none" stroke="black" points="66.41,-524.7 1415.82,-524.7 "/>
<text text-anchor="middle" x="741.07" y="-508.1" font-family="Courier New" font-size="14.00">mapping(address=&gt;mapping(uint=&gt;BuyPosition[])): StrategyStorage._buyPositionsPerPosition (32)</text>
</g>
<!-- 1 -->
<g id="node2" class="node">
<title>1</title>
<polygon fill="#f2f2f2" stroke="black" points="1957.69,-1334.3 1957.69,-1507.9 2208.93,-1507.9 2208.93,-1334.3 1957.69,-1334.3"/>
<text text-anchor="middle" x="2083.31" y="-1491.3" font-family="Courier New" font-size="14.00">uint256[50]: __gap &lt;&lt;Array&gt;&gt;</text>
<polyline fill="none" stroke="black" points="1957.69,-1483.1 2208.93,-1483.1 "/>
<text text-anchor="middle" x="1982.49" y="-1466.5" font-family="Courier New" font-size="14.00">slot</text>
<polyline fill="none" stroke="black" points="1957.69,-1458.3 2007.3,-1458.3 "/>
<text text-anchor="middle" x="1982.49" y="-1441.7" font-family="Courier New" font-size="14.00">1</text>
<polyline fill="none" stroke="black" points="1957.69,-1433.5 2007.3,-1433.5 "/>
<text text-anchor="middle" x="1982.49" y="-1416.9" font-family="Courier New" font-size="14.00">2</text>
<polyline fill="none" stroke="black" points="1957.69,-1408.7 2007.3,-1408.7 "/>
<text text-anchor="middle" x="1982.49" y="-1392.1" font-family="Courier New" font-size="14.00">3&#45;48</text>
<polyline fill="none" stroke="black" points="1957.69,-1383.9 2007.3,-1383.9 "/>
<text text-anchor="middle" x="1982.49" y="-1367.3" font-family="Courier New" font-size="14.00">49</text>
<polyline fill="none" stroke="black" points="1957.69,-1359.1 2007.3,-1359.1 "/>
<text text-anchor="middle" x="1982.49" y="-1342.5" font-family="Courier New" font-size="14.00">50</text>
<polyline fill="none" stroke="black" points="2007.3,-1334.3 2007.3,-1483.1 "/>
<text text-anchor="middle" x="2107.71" y="-1466.5" font-family="Courier New" font-size="14.00">type: variable (bytes)</text>
<polyline fill="none" stroke="black" points="2007.3,-1458.3 2208.13,-1458.3 "/>
<text text-anchor="middle" x="2107.71" y="-1441.7" font-family="Courier New" font-size="14.00">uint256 (32)</text>
<polyline fill="none" stroke="black" points="2007.3,-1433.5 2208.13,-1433.5 "/>
<text text-anchor="middle" x="2107.71" y="-1416.9" font-family="Courier New" font-size="14.00">uint256 (32)</text>
<polyline fill="none" stroke="black" points="2007.3,-1408.7 2208.13,-1408.7 "/>
<text text-anchor="middle" x="2107.5" y="-1392.1" font-family="Courier New" font-size="14.00">&#45;&#45;&#45;&#45; (1472)</text>
<polyline fill="none" stroke="black" points="2007.3,-1383.9 2208.13,-1383.9 "/>
<text text-anchor="middle" x="2107.71" y="-1367.3" font-family="Courier New" font-size="14.00">uint256 (32)</text>
<polyline fill="none" stroke="black" points="2007.3,-1359.1 2208.13,-1359.1 "/>
<text text-anchor="middle" x="2107.71" y="-1342.5" font-family="Courier New" font-size="14.00">uint256 (32)</text>
</g>
<!-- 14&#45;&gt;1 -->
<g id="edge1" class="edge">
<title>14:8&#45;&gt;1</title>
<path fill="none" stroke="black" d="M1415.82,-1107.1C1464.7,-1107.1 1417.05,-1289.74 1451.82,-1324.1 1581.24,-1452.01 1804.25,-1455.69 1947.41,-1441.91"/>
<polygon fill="black" stroke="black" points="1947.97,-1445.37 1957.57,-1440.89 1947.27,-1438.41 1947.97,-1445.37"/>
</g>
<!-- 2 -->
<g id="node3" class="node">
<title>2</title>
<polygon fill="#f2f2f2" stroke="black" points="1953.89,-1141.3 1953.89,-1314.9 2212.73,-1314.9 2212.73,-1141.3 1953.89,-1141.3"/>
<text text-anchor="middle" x="2083.31" y="-1298.3" font-family="Courier New" font-size="14.00">uint256[49]: __gap &lt;&lt;Array&gt;&gt;</text>
<polyline fill="none" stroke="black" points="1953.89,-1290.1 2212.73,-1290.1 "/>
<text text-anchor="middle" x="1982.9" y="-1273.5" font-family="Courier New" font-size="14.00">slot</text>
<polyline fill="none" stroke="black" points="1953.89,-1265.3 2011.9,-1265.3 "/>
<text text-anchor="middle" x="1982.9" y="-1248.7" font-family="Courier New" font-size="14.00">52</text>
<polyline fill="none" stroke="black" points="1953.89,-1240.5 2011.9,-1240.5 "/>
<text text-anchor="middle" x="1982.9" y="-1223.9" font-family="Courier New" font-size="14.00">53</text>
<polyline fill="none" stroke="black" points="1953.89,-1215.7 2011.9,-1215.7 "/>
<text text-anchor="middle" x="1982.9" y="-1199.1" font-family="Courier New" font-size="14.00">54&#45;98</text>
<polyline fill="none" stroke="black" points="1953.89,-1190.9 2011.9,-1190.9 "/>
<text text-anchor="middle" x="1982.9" y="-1174.3" font-family="Courier New" font-size="14.00">99</text>
<polyline fill="none" stroke="black" points="1953.89,-1166.1 2011.9,-1166.1 "/>
<text text-anchor="middle" x="1982.9" y="-1149.5" font-family="Courier New" font-size="14.00">100</text>
<polyline fill="none" stroke="black" points="2011.9,-1141.3 2011.9,-1290.1 "/>
<text text-anchor="middle" x="2112.31" y="-1273.5" font-family="Courier New" font-size="14.00">type: variable (bytes)</text>
<polyline fill="none" stroke="black" points="2011.9,-1265.3 2212.73,-1265.3 "/>
<text text-anchor="middle" x="2112.31" y="-1248.7" font-family="Courier New" font-size="14.00">uint256 (32)</text>
<polyline fill="none" stroke="black" points="2011.9,-1240.5 2212.73,-1240.5 "/>
<text text-anchor="middle" x="2112.31" y="-1223.9" font-family="Courier New" font-size="14.00">uint256 (32)</text>
<polyline fill="none" stroke="black" points="2011.9,-1215.7 2212.73,-1215.7 "/>
<text text-anchor="middle" x="2112.11" y="-1199.1" font-family="Courier New" font-size="14.00">&#45;&#45;&#45;&#45; (1440)</text>
<polyline fill="none" stroke="black" points="2011.9,-1190.9 2212.73,-1190.9 "/>
<text text-anchor="middle" x="2112.31" y="-1174.3" font-family="Courier New" font-size="14.00">uint256 (32)</text>
<polyline fill="none" stroke="black" points="2011.9,-1166.1 2212.73,-1166.1 "/>
<text text-anchor="middle" x="2112.31" y="-1149.5" font-family="Courier New" font-size="14.00">uint256 (32)</text>
</g>
<!-- 14&#45;&gt;2 -->
<g id="edge2" class="edge">
<title>14:15&#45;&gt;2</title>
<path fill="none" stroke="black" d="M1415.82,-1058.1C1452.39,-1058.1 1422.36,-1110.42 1451.82,-1132.1 1594.7,-1237.28 1805.74,-1248.4 1943.63,-1242"/>
<polygon fill="black" stroke="black" points="1944.03,-1245.49 1953.84,-1241.49 1943.68,-1238.5 1944.03,-1245.49"/>
</g>
<!-- 4 -->
<g id="node5" class="node">
<title>4</title>
<polygon fill="#f2f2f2" stroke="black" points="1798.07,-1031.5 1798.07,-1122.7 2368.56,-1122.7 2368.56,-1031.5 1798.07,-1031.5"/>
<text text-anchor="middle" x="2083.31" y="-1106.1" font-family="Courier New" font-size="14.00">Strategy[]: _strategies &lt;&lt;Array&gt;&gt;</text>
<text text-anchor="middle" x="2083.31" y="-1089.3" font-family="Courier New" font-size="14.00">0x46501879b8ca8525e8c2fd519e2fbfcfa2ebea26501294aa02cbfcfb12e94354</text>
<polyline fill="none" stroke="black" points="1798.07,-1081.1 2368.56,-1081.1 "/>
<text text-anchor="middle" x="1906.77" y="-1064.5" font-family="Courier New" font-size="14.00">offset</text>
<polyline fill="none" stroke="black" points="1798.07,-1056.3 2015.47,-1056.3 "/>
<text text-anchor="middle" x="1906.77" y="-1039.7" font-family="Courier New" font-size="14.00">0&#45;1</text>
<polyline fill="none" stroke="black" points="2015.47,-1031.5 2015.47,-1081.1 "/>
<text text-anchor="middle" x="2191.89" y="-1064.5" font-family="Courier New" font-size="14.00">type: variable (bytes)</text>
<polyline fill="none" stroke="black" points="2015.47,-1056.3 2368.3,-1056.3 "/>
<text text-anchor="middle" x="2191.58" y="-1039.7" font-family="Courier New" font-size="14.00">Strategy (64)</text>
</g>
<!-- 14&#45;&gt;4 -->
<g id="edge3" class="edge">
<title>14:20&#45;&gt;4</title>
<path fill="none" stroke="black" d="M1415.82,-1008.1C1432.98,-1008.1 1435.1,-1018.2 1451.82,-1022.1 1559.89,-1047.28 1680.82,-1061.16 1787.64,-1068.73"/>
<polygon fill="black" stroke="black" points="1787.71,-1072.24 1797.93,-1069.44 1788.19,-1065.26 1787.71,-1072.24"/>
</g>
<!-- 5 -->
<g id="node6" class="node">
<title>5</title>
<polygon fill="#f2f2f2" stroke="black" points="1798.07,-921.5 1798.07,-1012.7 2368.56,-1012.7 2368.56,-921.5 1798.07,-921.5"/>
<text text-anchor="middle" x="2083.31" y="-996.1" font-family="Courier New" font-size="14.00">uint[]: _hottestStrategiesArray &lt;&lt;Array&gt;&gt;</text>
<text text-anchor="middle" x="2083.31" y="-979.3" font-family="Courier New" font-size="14.00">0xa2153420d844928b4421650203c77babc8b33d7f2e7b450e2966db0c22097753</text>
<polyline fill="none" stroke="black" points="1798.07,-971.1 2368.56,-971.1 "/>
<text text-anchor="middle" x="1906.77" y="-954.5" font-family="Courier New" font-size="14.00">offset</text>
<polyline fill="none" stroke="black" points="1798.07,-946.3 2015.47,-946.3 "/>
<text text-anchor="middle" x="1906.77" y="-929.7" font-family="Courier New" font-size="14.00">0</text>
<polyline fill="none" stroke="black" points="2015.47,-921.5 2015.47,-971.1 "/>
<text text-anchor="middle" x="2191.89" y="-954.5" font-family="Courier New" font-size="14.00">type: variable (bytes)</text>
<polyline fill="none" stroke="black" points="2015.47,-946.3 2368.3,-946.3 "/>
<text text-anchor="middle" x="2191.78" y="-929.7" font-family="Courier New" font-size="14.00">uint (32)</text>
</g>
<!-- 14&#45;&gt;5 -->
<g id="edge4" class="edge">
<title>14:23&#45;&gt;5</title>
<path fill="none" stroke="black" d="M1415.82,-959.1C1537.54,-959.1 1671.75,-960.45 1787.64,-962.04"/>
<polygon fill="black" stroke="black" points="1787.68,-965.54 1797.73,-962.18 1787.78,-958.54 1787.68,-965.54"/>
</g>
<!-- 6 -->
<g id="node7" class="node">
<title>6</title>
<polygon fill="#f2f2f2" stroke="black" points="1711.46,-827.9 1711.46,-902.3 2455.17,-902.3 2455.17,-827.9 1711.46,-827.9"/>
<text text-anchor="middle" x="2083.31" y="-885.7" font-family="Courier New" font-size="14.00">DcaInvestment &lt;&lt;Struct&gt;&gt;</text>
<polyline fill="none" stroke="black" points="1711.46,-877.5 2455.17,-877.5 "/>
<text text-anchor="middle" x="1744.66" y="-860.9" font-family="Courier New" font-size="14.00">offset</text>
<polyline fill="none" stroke="black" points="1711.46,-852.7 1777.87,-852.7 "/>
<text text-anchor="middle" x="1744.66" y="-836.1" font-family="Courier New" font-size="14.00">0</text>
<polyline fill="none" stroke="black" points="1777.87,-827.9 1777.87,-877.5 "/>
<text text-anchor="middle" x="2116.52" y="-860.9" font-family="Courier New" font-size="14.00">type: variable (bytes)</text>
<polyline fill="none" stroke="black" points="1777.87,-852.7 2455.17,-852.7 "/>
<text text-anchor="middle" x="1848.88" y="-836.1" font-family="Courier New" font-size="14.00">unallocated (3)</text>
<polyline fill="none" stroke="black" points="1919.89,-827.9 1919.89,-852.7 "/>
<text text-anchor="middle" x="2016.1" y="-836.1" font-family="Courier New" font-size="14.00">uint8: percentage (1)</text>
<polyline fill="none" stroke="black" points="2112.31,-827.9 2112.31,-852.7 "/>
<text text-anchor="middle" x="2191.73" y="-836.1" font-family="Courier New" font-size="14.00">uint16: swaps (2)</text>
<polyline fill="none" stroke="black" points="2271.14,-827.9 2271.14,-852.7 "/>
<text text-anchor="middle" x="2363.15" y="-836.1" font-family="Courier New" font-size="14.00">uint208: poolId (26)</text>
</g>
<!-- 14&#45;&gt;6 -->
<g id="edge5" class="edge">
<title>14:38&#45;&gt;6</title>
<path fill="none" stroke="black" d="M1415.82,-711.1C1466.41,-711.1 1411.88,-788.04 1451.82,-819.1 1573,-913.34 1749.99,-918.33 1885.62,-903.46"/>
<polygon fill="black" stroke="black" points="1886.18,-906.92 1895.72,-902.31 1885.39,-899.97 1886.18,-906.92"/>
</g>
<!-- 7 -->
<g id="node8" class="node">
<title>7</title>
<polygon fill="#f2f2f2" stroke="black" points="1790.87,-734.9 1790.87,-809.3 2375.75,-809.3 2375.75,-734.9 1790.87,-734.9"/>
<text text-anchor="middle" x="2083.31" y="-792.7" font-family="Courier New" font-size="14.00">VaultInvestment &lt;&lt;Struct&gt;&gt;</text>
<polyline fill="none" stroke="black" points="1790.87,-784.5 2375.75,-784.5 "/>
<text text-anchor="middle" x="1824.07" y="-767.9" font-family="Courier New" font-size="14.00">offset</text>
<polyline fill="none" stroke="black" points="1790.87,-759.7 1857.28,-759.7 "/>
<text text-anchor="middle" x="1824.07" y="-743.1" font-family="Courier New" font-size="14.00">0</text>
<polyline fill="none" stroke="black" points="1857.28,-734.9 1857.28,-784.5 "/>
<text text-anchor="middle" x="2116.52" y="-767.9" font-family="Courier New" font-size="14.00">type: variable (bytes)</text>
<polyline fill="none" stroke="black" points="1857.28,-759.7 2375.75,-759.7 "/>
<text text-anchor="middle" x="1932.49" y="-743.1" font-family="Courier New" font-size="14.00">unallocated (11)</text>
<polyline fill="none" stroke="black" points="2007.7,-734.9 2007.7,-759.7 "/>
<text text-anchor="middle" x="2103.91" y="-743.1" font-family="Courier New" font-size="14.00">uint8: percentage (1)</text>
<polyline fill="none" stroke="black" points="2200.13,-734.9 2200.13,-759.7 "/>
<text text-anchor="middle" x="2287.94" y="-743.1" font-family="Courier New" font-size="14.00">address: vault (20)</text>
</g>
<!-- 14&#45;&gt;7 -->
<g id="edge6" class="edge">
<title>14:41&#45;&gt;7</title>
<path fill="none" stroke="black" d="M1415.82,-686.1C1439.73,-686.1 1430.34,-715.58 1451.82,-726.1 1552.06,-775.19 1672.16,-792.54 1780.52,-795.62"/>
<polygon fill="black" stroke="black" points="1780.55,-799.12 1790.64,-795.86 1780.72,-792.12 1780.55,-799.12"/>
</g>
<!-- 8 -->
<g id="node9" class="node">
<title>8</title>
<polygon fill="#f2f2f2" stroke="black" points="1451.82,-592.1 1451.82,-716.1 2714.8,-716.1 2714.8,-592.1 1451.82,-592.1"/>
<text text-anchor="middle" x="2083.31" y="-699.5" font-family="Courier New" font-size="14.00">LiquidityInvestment &lt;&lt;Struct&gt;&gt;</text>
<polyline fill="none" stroke="black" points="1451.82,-691.3 2714.8,-691.3 "/>
<text text-anchor="middle" x="1485.02" y="-674.7" font-family="Courier New" font-size="14.00">offset</text>
<polyline fill="none" stroke="black" points="1451.82,-666.5 1518.23,-666.5 "/>
<text text-anchor="middle" x="1485.02" y="-649.9" font-family="Courier New" font-size="14.00">0</text>
<polyline fill="none" stroke="black" points="1451.82,-641.7 1518.23,-641.7 "/>
<text text-anchor="middle" x="1485.02" y="-625.1" font-family="Courier New" font-size="14.00">1</text>
<polyline fill="none" stroke="black" points="1451.82,-616.9 1518.23,-616.9 "/>
<text text-anchor="middle" x="1485.02" y="-600.3" font-family="Courier New" font-size="14.00">2</text>
<polyline fill="none" stroke="black" points="1518.23,-592.1 1518.23,-691.3 "/>
<text text-anchor="middle" x="2116.52" y="-674.7" font-family="Courier New" font-size="14.00">type: variable (bytes)</text>
<polyline fill="none" stroke="black" points="1518.23,-666.5 2714.8,-666.5 "/>
<text text-anchor="middle" x="1664.44" y="-649.9" font-family="Courier New" font-size="14.00">unallocated (11)</text>
<polyline fill="none" stroke="black" points="1810.65,-641.7 1810.65,-666.5 "/>
<text text-anchor="middle" x="1977.86" y="-649.9" font-family="Courier New" font-size="14.00">uint8: percentage (1)</text>
<polyline fill="none" stroke="black" points="2145.08,-641.7 2145.08,-666.5 "/>
<text text-anchor="middle" x="2429.91" y="-649.9" font-family="Courier New" font-size="14.00">INonfungiblePositionManager: positionManager (20)</text>
<polyline fill="none" stroke="black" points="1518.23,-641.7 2714.8,-641.7 "/>
<text text-anchor="middle" x="1787.94" y="-625.1" font-family="Courier New" font-size="14.00">unallocated (12)</text>
<polyline fill="none" stroke="black" points="2057.65,-616.9 2057.65,-641.7 "/>
<text text-anchor="middle" x="2386.17" y="-625.1" font-family="Courier New" font-size="14.00">IERC20Upgradeable: token0 (20)</text>
<polyline fill="none" stroke="black" points="1518.23,-616.9 2714.8,-616.9 "/>
<text text-anchor="middle" x="1589.24" y="-600.3" font-family="Courier New" font-size="14.00">unallocated (2)</text>
<polyline fill="none" stroke="black" points="1660.25,-592.1 1660.25,-616.9 "/>
<text text-anchor="middle" x="1756.46" y="-600.3" font-family="Courier New" font-size="14.00">int24: upperBound (3)</text>
<polyline fill="none" stroke="black" points="1852.67,-592.1 1852.67,-616.9 "/>
<text text-anchor="middle" x="1948.89" y="-600.3" font-family="Courier New" font-size="14.00">int24: lowerBound (3)</text>
<polyline fill="none" stroke="black" points="2045.1,-592.1 2045.1,-616.9 "/>
<text text-anchor="middle" x="2174.92" y="-600.3" font-family="Courier New" font-size="14.00">bool: usePercentageBounds (1)</text>
<polyline fill="none" stroke="black" points="2304.74,-592.1 2304.74,-616.9 "/>
<text text-anchor="middle" x="2375.75" y="-600.3" font-family="Courier New" font-size="14.00">uint24: fee (3)</text>
<polyline fill="none" stroke="black" points="2446.76,-592.1 2446.76,-616.9 "/>
<text text-anchor="middle" x="2580.78" y="-600.3" font-family="Courier New" font-size="14.00">IERC20Upgradeable: token1 (20)</text>
</g>
<!-- 14&#45;&gt;8 -->
<g id="edge7" class="edge">
<title>14:50&#45;&gt;8</title>
<path fill="none" stroke="black" d="M1415.82,-661.1C1424.34,-661.1 1432.93,-661.09 1441.57,-661.08"/>
<polygon fill="black" stroke="black" points="1441.73,-664.58 1451.73,-661.07 1441.72,-657.58 1441.73,-664.58"/>
</g>
<!-- 9 -->
<g id="node10" class="node">
<title>9</title>
<polygon fill="#f2f2f2" stroke="black" points="1748.86,-498.9 1748.86,-573.3 2417.76,-573.3 2417.76,-498.9 1748.86,-498.9"/>
<text text-anchor="middle" x="2083.31" y="-556.7" font-family="Courier New" font-size="14.00">BuyInvestment &lt;&lt;Struct&gt;&gt;</text>
<polyline fill="none" stroke="black" points="1748.86,-548.5 2417.76,-548.5 "/>
<text text-anchor="middle" x="1782.07" y="-531.9" font-family="Courier New" font-size="14.00">offset</text>
<polyline fill="none" stroke="black" points="1748.86,-523.7 1815.27,-523.7 "/>
<text text-anchor="middle" x="1782.07" y="-507.1" font-family="Courier New" font-size="14.00">0</text>
<polyline fill="none" stroke="black" points="1815.27,-498.9 1815.27,-548.5 "/>
<text text-anchor="middle" x="2116.52" y="-531.9" font-family="Courier New" font-size="14.00">type: variable (bytes)</text>
<polyline fill="none" stroke="black" points="1815.27,-523.7 2417.76,-523.7 "/>
<text text-anchor="middle" x="1890.48" y="-507.1" font-family="Courier New" font-size="14.00">unallocated (11)</text>
<polyline fill="none" stroke="black" points="1965.69,-498.9 1965.69,-523.7 "/>
<text text-anchor="middle" x="2061.91" y="-507.1" font-family="Courier New" font-size="14.00">uint8: percentage (1)</text>
<polyline fill="none" stroke="black" points="2158.12,-498.9 2158.12,-523.7 "/>
<text text-anchor="middle" x="2287.94" y="-507.1" font-family="Courier New" font-size="14.00">IERC20Upgradeable: token (20)</text>
</g>
<!-- 14&#45;&gt;9 -->
<g id="edge8" class="edge">
<title>14:53&#45;&gt;9</title>
<path fill="none" stroke="black" d="M1415.82,-636.1C1444.29,-636.1 1427.17,-597.35 1451.82,-583.1 1537.25,-533.7 1640.45,-513.2 1738.39,-507.4"/>
<polygon fill="black" stroke="black" points="1738.67,-510.89 1748.47,-506.85 1738.29,-503.9 1738.67,-510.89"/>
</g>
<!-- 10 -->
<g id="node11" class="node">
<title>10</title>
<polygon fill="#f2f2f2" stroke="black" points="1899.69,-380.5 1899.69,-479.7 2266.94,-479.7 2266.94,-380.5 1899.69,-380.5"/>
<text text-anchor="middle" x="2083.31" y="-463.1" font-family="Courier New" font-size="14.00">Position &lt;&lt;Struct&gt;&gt;</text>
<polyline fill="none" stroke="black" points="1899.69,-454.9 2266.94,-454.9 "/>
<text text-anchor="middle" x="1932.89" y="-438.3" font-family="Courier New" font-size="14.00">offset</text>
<polyline fill="none" stroke="black" points="1899.69,-430.1 1966.09,-430.1 "/>
<text text-anchor="middle" x="1932.89" y="-413.5" font-family="Courier New" font-size="14.00">0</text>
<polyline fill="none" stroke="black" points="1899.69,-405.3 1966.09,-405.3 "/>
<text text-anchor="middle" x="1932.89" y="-388.7" font-family="Courier New" font-size="14.00">1</text>
<polyline fill="none" stroke="black" points="1966.09,-380.5 1966.09,-454.9 "/>
<text text-anchor="middle" x="2116.52" y="-438.3" font-family="Courier New" font-size="14.00">type: variable (bytes)</text>
<polyline fill="none" stroke="black" points="1966.09,-430.1 2266.94,-430.1 "/>
<text text-anchor="middle" x="2116.31" y="-413.5" font-family="Courier New" font-size="14.00">uint: strategyId (32)</text>
<polyline fill="none" stroke="black" points="1966.09,-405.3 2266.94,-405.3 "/>
<text text-anchor="middle" x="2041.3" y="-388.7" font-family="Courier New" font-size="14.00">unallocated (31)</text>
<polyline fill="none" stroke="black" points="2116.52,-380.5 2116.52,-405.3 "/>
<text text-anchor="middle" x="2191.73" y="-388.7" font-family="Courier New" font-size="14.00">bool: closed (1)</text>
</g>
<!-- 14&#45;&gt;10 -->
<g id="edge9" class="edge">
<title>14:56&#45;&gt;10</title>
<path fill="none" stroke="black" d="M1415.82,-611.1C1472.35,-611.1 1408.17,-525.02 1451.82,-489.1 1572.11,-390.11 1752.41,-382.63 1889.43,-395.68"/>
<polygon fill="black" stroke="black" points="1889.34,-399.19 1899.64,-396.7 1890.03,-392.22 1889.34,-399.19"/>
</g>
<!-- 11 -->
<g id="node12" class="node">
<title>11</title>
<polygon fill="#f2f2f2" stroke="black" points="1887.08,-262.5 1887.08,-361.7 2279.54,-361.7 2279.54,-262.5 1887.08,-262.5"/>
<text text-anchor="middle" x="2083.31" y="-345.1" font-family="Courier New" font-size="14.00">VaultPosition &lt;&lt;Struct&gt;&gt;</text>
<polyline fill="none" stroke="black" points="1887.08,-336.9 2279.54,-336.9 "/>
<text text-anchor="middle" x="1920.29" y="-320.3" font-family="Courier New" font-size="14.00">offset</text>
<polyline fill="none" stroke="black" points="1887.08,-312.1 1953.49,-312.1 "/>
<text text-anchor="middle" x="1920.29" y="-295.5" font-family="Courier New" font-size="14.00">0</text>
<polyline fill="none" stroke="black" points="1887.08,-287.3 1953.49,-287.3 "/>
<text text-anchor="middle" x="1920.29" y="-270.7" font-family="Courier New" font-size="14.00">1</text>
<polyline fill="none" stroke="black" points="1953.49,-262.5 1953.49,-336.9 "/>
<text text-anchor="middle" x="2116.52" y="-320.3" font-family="Courier New" font-size="14.00">type: variable (bytes)</text>
<polyline fill="none" stroke="black" points="1953.49,-312.1 2279.54,-312.1 "/>
<text text-anchor="middle" x="2028.7" y="-295.5" font-family="Courier New" font-size="14.00">unallocated (12)</text>
<polyline fill="none" stroke="black" points="2103.91,-287.3 2103.91,-312.1 "/>
<text text-anchor="middle" x="2191.73" y="-295.5" font-family="Courier New" font-size="14.00">address: vault (20)</text>
<polyline fill="none" stroke="black" points="1953.49,-287.3 2279.54,-287.3 "/>
<text text-anchor="middle" x="2116.4" y="-270.7" font-family="Courier New" font-size="14.00">uint: amount (32)</text>
</g>
<!-- 14&#45;&gt;11 -->
<g id="edge10" class="edge">
<title>14:60&#45;&gt;11</title>
<path fill="none" stroke="black" d="M1415.82,-562.1C1502.2,-562.1 1387.96,-429.28 1451.82,-371.1 1564.3,-268.62 1739.46,-259.71 1876.64,-273.14"/>
<polygon fill="black" stroke="black" points="1876.56,-276.65 1886.86,-274.19 1877.27,-269.69 1876.56,-276.65"/>
</g>
<!-- 12 -->
<g id="node13" class="node">
<title>12</title>
<polygon fill="#f2f2f2" stroke="black" points="1761.06,-119.1 1761.06,-243.1 2405.56,-243.1 2405.56,-119.1 1761.06,-119.1"/>
<text text-anchor="middle" x="2083.31" y="-226.5" font-family="Courier New" font-size="14.00">LiquidityPosition &lt;&lt;Struct&gt;&gt;</text>
<polyline fill="none" stroke="black" points="1761.06,-218.3 2405.56,-218.3 "/>
<text text-anchor="middle" x="1794.27" y="-201.7" font-family="Courier New" font-size="14.00">offset</text>
<polyline fill="none" stroke="black" points="1761.06,-193.5 1827.47,-193.5 "/>
<text text-anchor="middle" x="1794.27" y="-176.9" font-family="Courier New" font-size="14.00">0</text>
<polyline fill="none" stroke="black" points="1761.06,-168.7 1827.47,-168.7 "/>
<text text-anchor="middle" x="1794.27" y="-152.1" font-family="Courier New" font-size="14.00">1</text>
<polyline fill="none" stroke="black" points="1761.06,-143.9 1827.47,-143.9 "/>
<text text-anchor="middle" x="1794.27" y="-127.3" font-family="Courier New" font-size="14.00">2</text>
<polyline fill="none" stroke="black" points="1827.47,-119.1 1827.47,-218.3 "/>
<text text-anchor="middle" x="2116.52" y="-201.7" font-family="Courier New" font-size="14.00">type: variable (bytes)</text>
<polyline fill="none" stroke="black" points="1827.47,-193.5 2405.56,-193.5 "/>
<text text-anchor="middle" x="1902.68" y="-176.9" font-family="Courier New" font-size="14.00">unallocated (12)</text>
<polyline fill="none" stroke="black" points="1977.89,-168.7 1977.89,-193.5 "/>
<text text-anchor="middle" x="2191.73" y="-176.9" font-family="Courier New" font-size="14.00">INonfungiblePositionManager: positionManager (20)</text>
<polyline fill="none" stroke="black" points="1827.47,-168.7 2405.56,-168.7 "/>
<text text-anchor="middle" x="2116.08" y="-152.1" font-family="Courier New" font-size="14.00">uint: tokenId (32)</text>
<polyline fill="none" stroke="black" points="1827.47,-143.9 2405.56,-143.9 "/>
<text text-anchor="middle" x="1957.18" y="-127.3" font-family="Courier New" font-size="14.00">unallocated (16)</text>
<polyline fill="none" stroke="black" points="2086.89,-119.1 2086.89,-143.9 "/>
<text text-anchor="middle" x="2246.01" y="-127.3" font-family="Courier New" font-size="14.00">uint128: liquidity (16)</text>
</g>
<!-- 14&#45;&gt;12 -->
<g id="edge11" class="edge">
<title>14:64&#45;&gt;12</title>
<path fill="none" stroke="black" d="M1415.82,-537.1C1479.43,-537.1 1406.56,-297.8 1451.82,-253.1 1529.73,-176.15 1642.19,-148.1 1750.62,-142.58"/>
<polygon fill="black" stroke="black" points="1750.93,-146.07 1760.76,-142.12 1750.62,-139.07 1750.93,-146.07"/>
</g>
<!-- 13 -->
<g id="node14" class="node">
<title>13</title>
<polygon fill="#f2f2f2" stroke="black" points="1845.08,-0.5 1845.08,-99.7 2321.55,-99.7 2321.55,-0.5 1845.08,-0.5"/>
<text text-anchor="middle" x="2083.31" y="-83.1" font-family="Courier New" font-size="14.00">BuyPosition &lt;&lt;Struct&gt;&gt;</text>
<polyline fill="none" stroke="black" points="1845.08,-74.9 2321.55,-74.9 "/>
<text text-anchor="middle" x="1878.28" y="-58.3" font-family="Courier New" font-size="14.00">offset</text>
<polyline fill="none" stroke="black" points="1845.08,-50.1 1911.48,-50.1 "/>
<text text-anchor="middle" x="1878.28" y="-33.5" font-family="Courier New" font-size="14.00">0</text>
<polyline fill="none" stroke="black" points="1845.08,-25.3 1911.48,-25.3 "/>
<text text-anchor="middle" x="1878.28" y="-8.7" font-family="Courier New" font-size="14.00">1</text>
<polyline fill="none" stroke="black" points="1911.48,-0.5 1911.48,-74.9 "/>
<text text-anchor="middle" x="2116.52" y="-58.3" font-family="Courier New" font-size="14.00">type: variable (bytes)</text>
<polyline fill="none" stroke="black" points="1911.48,-50.1 2321.55,-50.1 "/>
<text text-anchor="middle" x="1986.7" y="-33.5" font-family="Courier New" font-size="14.00">unallocated (12)</text>
<polyline fill="none" stroke="black" points="2061.91,-25.3 2061.91,-50.1 "/>
<text text-anchor="middle" x="2191.73" y="-33.5" font-family="Courier New" font-size="14.00">IERC20Upgradeable: token (20)</text>
<polyline fill="none" stroke="black" points="1911.48,-25.3 2321.55,-25.3 "/>
<text text-anchor="middle" x="2116.4" y="-8.7" font-family="Courier New" font-size="14.00">uint: amount (32)</text>
</g>
<!-- 14&#45;&gt;13 -->
<g id="edge12" class="edge">
<title>14:67&#45;&gt;13</title>
<path fill="none" stroke="black" d="M1415.82,-512.1C1505.51,-512.1 1388.57,-173.7 1451.82,-110.1 1549.39,-11.98 1703.4,4.17 1834.77,-4.77"/>
<polygon fill="black" stroke="black" points="1834.76,-8.28 1844.99,-5.52 1835.27,-1.3 1834.76,-8.28"/>
</g>
<!-- 3 -->
<g id="node4" class="node">
<title>3</title>
<polygon fill="#f2f2f2" stroke="black" points="2750.8,-986.1 2750.8,-1102.1 3321.29,-1102.1 3321.29,-986.1 2750.8,-986.1"/>
<text text-anchor="middle" x="3036.05" y="-1085.5" font-family="Courier New" font-size="14.00">Strategy &lt;&lt;Struct&gt;&gt;</text>
<text text-anchor="middle" x="3036.05" y="-1068.7" font-family="Courier New" font-size="14.00">0x46501879b8ca8525e8c2fd519e2fbfcfa2ebea26501294aa02cbfcfb12e94354</text>
<polyline fill="none" stroke="black" points="2750.8,-1060.5 3321.29,-1060.5 "/>
<text text-anchor="middle" x="2824.01" y="-1043.9" font-family="Courier New" font-size="14.00">offset</text>
<polyline fill="none" stroke="black" points="2750.8,-1035.7 2897.21,-1035.7 "/>
<text text-anchor="middle" x="2824.01" y="-1019.1" font-family="Courier New" font-size="14.00">0</text>
<polyline fill="none" stroke="black" points="2750.8,-1010.9 2897.21,-1010.9 "/>
<text text-anchor="middle" x="2824.01" y="-994.3" font-family="Courier New" font-size="14.00">1</text>
<polyline fill="none" stroke="black" points="2897.21,-986.1 2897.21,-1060.5 "/>
<text text-anchor="middle" x="3109.04" y="-1043.9" font-family="Courier New" font-size="14.00">type: variable (bytes)</text>
<polyline fill="none" stroke="black" points="2897.21,-1035.7 3320.87,-1035.7 "/>
<text text-anchor="middle" x="2992.42" y="-1019.1" font-family="Courier New" font-size="14.00">unallocated (12)</text>
<polyline fill="none" stroke="black" points="3087.63,-1010.9 3087.63,-1035.7 "/>
<text text-anchor="middle" x="3203.85" y="-1019.1" font-family="Courier New" font-size="14.00">address: creator (20)</text>
<polyline fill="none" stroke="black" points="2897.21,-1010.9 3320.87,-1010.9 "/>
<text text-anchor="middle" x="3109.04" y="-994.3" font-family="Courier New" font-size="14.00">mapping(uint8=&gt;uint8): percentages (32)</text>
</g>
<!-- 4&#45;&gt;3 -->
<g id="edge13" class="edge">
<title>4:19&#45;&gt;3</title>
<path fill="none" stroke="black" d="M2368.31,-1044.1C2490.21,-1044.1 2624.64,-1044.1 2740.66,-1044.1"/>
<polygon fill="black" stroke="black" points="2740.76,-1047.6 2750.76,-1044.1 2740.76,-1040.6 2740.76,-1047.6"/>
</g>
</g>
</svg>
